<?xml version="1.0" encoding="UTF-8"?>
<svg xmlns="http://www.w3.org/2000/svg" xmlns:xlink="http://www.w3.org/1999/xlink" width="57px" height="40px">
  <defs>
    <filter id="Filter_0">
      <feFlood flood-color="rgb(255, 255, 255)" flood-opacity="1" result="floodOut"></feFlood>
      <feComposite operator="atop" in="floodOut" in2="SourceGraphic" result="compOut"></feComposite>
      <feBlend mode="normal" in="compOut" in2="SourceGraphic"></feBlend>
    </filter>
  </defs>
  <g filter="url(#Filter_0)">
    <path fill-rule="evenodd" fill="rgb(115, 61, 67)" d="M52.385,0.0 L4.613,0.0 C2.34,0.0 0.0,2.144 0.0,4.704 L0.0,35.293 C0.0,37.923 2.103,39.999 4.613,39.999 L52.385,39.999 C54.964,39.999 56.999,37.853 56.999,35.293 L56.999,4.704 C56.999,2.75 54.896,0.0 52.385,0.0 L52.385,0.0 ZM51.503,2.767 L31.553,23.113 C29.856,24.843 27.142,24.843 25.446,23.113 L5.496,2.767 L51.503,2.767 ZM2.781,35.639 C2.781,35.500 2.713,35.431 2.713,35.293 L2.713,4.704 C2.713,4.428 2.781,4.220 2.849,3.943 L2.916,4.12 L18.320,19.722 L2.781,35.639 ZM5.20,37.231 L20.288,21.660 L23.613,25.51 C24.970,26.435 26.735,27.127 28.566,27.127 C30.399,27.127 32.163,26.435 33.520,25.51 L36.642,21.867 L51.706,37.231 L5.20,37.231 ZM54.284,35.293 C54.284,35.501 54.217,35.708 54.149,35.916 L38.473,19.930 L54.149,3.943 C54.216,4.151 54.284,4.428 54.284,4.705 L54.284,35.293 Z"></path>
  </g>
</svg>
