<?xml version="1.0" encoding="UTF-8"?>
<svg xmlns="http://www.w3.org/2000/svg" width="130" height="129" viewBox="0 0 130 129">
  <defs>
    <style>
      .cls-1 {
        fill: #fff;
        fill-rule: evenodd;
      }
    </style>
  </defs>
  <path id="ico" class="cls-1" d="M1613.26,1751.46h0.29a6.246,6.246,0,0,0,3.19-.93l5.33-3.19a3.067,3.067,0,0,0,1.45-1.87,2.087,2.087,0,0,0-.2-1.64,1.816,1.816,0,0,1,1.23-1.11,67.844,67.844,0,0,0,12.02-5.53l9.33,15.52c0.03,0.04.06,0.07,0.09,0.11,0.01,0.01.01,0.03,0.02,0.04a4.347,4.347,0,0,1-.46,1.05c-0.52.95-1.38,2.55-.38,4.21s2.82,1.64,3.9,1.64a5.688,5.688,0,0,1,1.12.06,4.034,4.034,0,0,1-.45,1.05c-0.52.95-1.38,2.55-.39,4.21a3.189,3.189,0,0,0,2.02,1.47l-24.81,33.27a5.7,5.7,0,0,0,1.17,7.97l28.4,21.09a5.655,5.655,0,0,0,3.4,1.12,5.72,5.72,0,0,0,4.59-2.29l42.66-57.23a23.321,23.321,0,0,0,4.22-18.18,20.686,20.686,0,0,1,3.49-16.35l9.47-12.69a3.653,3.653,0,0,0,.74.09,3.613,3.613,0,0,0,2.9-1.45l4.68-6.28a3.6,3.6,0,0,0-.74-5.04l-11.94-8.87a3.626,3.626,0,0,0-5.05.74l-4.68,6.28a3.61,3.61,0,0,0-.67,2.68,3.475,3.475,0,0,0,.67,1.59l-8.94,12a20.858,20.858,0,0,1-14.95,8.28,23.411,23.411,0,0,0-16.75,9.32l-15.58,20.89c-0.14,0-.28,0-0.4.01a5.688,5.688,0,0,1-1.12-.06,3.9,3.9,0,0,1,.45-1.05c0.52-.95,1.38-2.55.39-4.21s-2.8-1.63-3.91-1.64a6.6,6.6,0,0,1-1.12-.06,3.673,3.673,0,0,1,.46-1.05c0.51-.95,1.38-2.55.38-4.21-0.02-.03-0.05-0.05-0.07-0.08s-0.02-.07-0.04-0.1l-9.33-15.51a68.228,68.228,0,0,0,9.98-7.46,2.613,2.613,0,0,1,1.45-.64,2.227,2.227,0,0,0,1.36.99,2.817,2.817,0,0,0,2.13-.36l5.53-3.32a6.171,6.171,0,0,0,2.45-2.63,3.7,3.7,0,0,0-.07-3.53l-6.69-11.13c-1.17-1.95-4.06-2.31-6.57-.8l-5.54,3.32a2.494,2.494,0,0,0-1.13,3.28,1.908,1.908,0,0,1-1.2,1.06,70.748,70.748,0,0,0-12.69,6.08,69.529,69.529,0,0,0-11.91,8.84,2.506,2.506,0,0,1-1.48.66,2.357,2.357,0,0,0-1.93-1.12,3.3,3.3,0,0,0-1.84.48l-5.33,3.19a6.171,6.171,0,0,0-2.45,2.63,3.7,3.7,0,0,0,.07,3.53l6.69,11.13a3.754,3.754,0,0,0,3.09,1.73h0Zm40.28,20.58c0.99,1.65,2.83,1.64,3.9,1.64a5.688,5.688,0,0,1,1.12.06,3.9,3.9,0,0,1-.45,1.05c-0.52.95-1.38,2.55-.39,4.21s2.81,1.65,3.91,1.65a5.043,5.043,0,0,1,1.12.06,3.858,3.858,0,0,1-.45,1.04c-0.52.96-1.38,2.56-.39,4.22a1.66,1.66,0,0,0,1.4.79,1.641,1.641,0,0,0,.82-0.23,1.6,1.6,0,0,0,.56-2.21,3.858,3.858,0,0,1,.45-1.04c0.52-.95,1.38-2.56.38-4.21s-2.8-1.65-3.9-1.65a5.688,5.688,0,0,1-1.12-.06,3.9,3.9,0,0,1,.45-1.05c0.52-.95,1.38-2.55.38-4.21s-2.81-1.64-3.9-1.65a5.893,5.893,0,0,1-1.12-.05,3.9,3.9,0,0,1,.45-1.05c0.52-.95,1.38-2.55.39-4.21a3.589,3.589,0,0,0-.35-0.47l8.8-11.81,32.37,24.03-29.56,39.65-32.37-24.03,17.18-23.03a3.137,3.137,0,0,0,.32,2.56h0Zm7.98,53.74a2.474,2.474,0,0,1-3.46.5l-28.4-21.08a2.46,2.46,0,0,1-.5-3.45l4.95-6.65,32.36,24.03Zm50.94-115.12,4.68-6.28a0.382,0.382,0,0,1,.53-0.08l11.94,8.87a0.368,0.368,0,0,1,.07.52l-4.68,6.28a0.37,0.37,0,0,1-.52.08l-11.94-8.87a0.365,0.365,0,0,1-.08-0.52h0Zm-0.1,4.41,8.79,6.54-9.26,12.42c-0.21.29-.39,0.59-0.59,0.89l-8.92-6.63c0.39-.45.78-0.89,1.14-1.36Zm-40.54,29.45a20.153,20.153,0,0,1,14.43-8.02,24.216,24.216,0,0,0,13.85-5.89l9.58,7.11a24.433,24.433,0,0,0-1.86,15.17,20.131,20.131,0,0,1-3.64,15.66l-4.28,5.75-32.37-24.03Zm-21.25-35.1a2.088,2.088,0,0,1,2.14-.3l6.69,11.12a0.768,0.768,0,0,1-.09.52,2.983,2.983,0,0,1-1.18,1.22l-4.87,2.92-7.56-12.56Zm-20.56,13.73a67.812,67.812,0,0,1,12.1-5.79,5.426,5.426,0,0,0,2.05-1.31l5.09,8.45a5.6,5.6,0,0,0-2.12,1.2,67.61,67.61,0,0,1-10.82,7.93,66.345,66.345,0,0,1-12.78,6.03,5.617,5.617,0,0,0-2.09,1.29l-4.89-8.14a5.453,5.453,0,0,0,2.11-1.23,66.283,66.283,0,0,1,11.35-8.43h0Zm-23.67,13.27a3.023,3.023,0,0,1,1.18-1.21l4.93-2.95,7.55,12.56-4.92,2.95a3.071,3.071,0,0,1-1.63.47,0.7,0.7,0,0,1-.51-0.17l-6.69-11.12a0.733,0.733,0,0,1,.09-0.53h0Z" transform="translate(-1603 -1701)"></path>
</svg>
