<?xml version="1.0" encoding="UTF-8"?>
<svg xmlns="http://www.w3.org/2000/svg" width="85" height="103" viewBox="0 0 85 103">
  <defs>
    <style>
      .cls-1 {
        fill: #fff;
        fill-rule: evenodd;
      }
    </style>
  </defs>
  <path class="cls-1" d="M1030.93,1720.29c-9.04-4.17-20.19-.47-28.04,8.33-4.191-11.76-13.9-19.42-24.006-18.55-12.884,1.12-22.183,15.46-20.738,31.97,1.184,13.38,8.877,24.47,18.873,27.46l0.859,9.64a1.639,1.639,0,0,0,1.639,1.48h0.147l3.423-.31c-0.876,2.95-2.012,8.78.747,13.44,2.629,4.43.778,10.04,0.081,12.15-0.114.36-.211,0.65-0.26,0.82a1.626,1.626,0,0,0,1.185,1.98,1.879,1.879,0,0,0,.406.05,1.646,1.646,0,0,0,1.59-1.22c0.032-.15.114-0.36,0.195-0.61,0.827-2.5,3-9.13-.373-14.83-2.6-4.37-.568-10.62-0.016-12.08l3.878-.34a1.632,1.632,0,0,0,1.494-1.77l-0.86-9.66a20.466,20.466,0,0,0,4.462-3.09,20.884,20.884,0,0,0,3.8,5.72l-4.106,8.78a1.644,1.644,0,0,0,.8,2.18l3.067,1.41c-0.746,2.08-2.937,9.22.325,14.74,2.614,4.43.774,10.05,0.081,12.15-0.114.36-.211,0.65-0.259,0.82a1.625,1.625,0,0,0,1.182,1.98,1.707,1.707,0,0,0,.45.07,1.668,1.668,0,0,0,1.6-1.22c0.03-.15.11-0.36,0.19-0.61,0.83-2.5,3-9.13-.37-14.83-2.421-4.05-.83-9.73-0.17-11.7l3.83,1.76a1.9,1.9,0,0,0,.7.14,1.63,1.63,0,0,0,1.49-.95l4.13-8.78c10.42,0.56,21.47-7.31,27.15-19.48,7.01-15.03,3.16-31.64-8.57-37.04h0Zm-42.147,45.49a1.636,1.636,0,0,0-.99,1.65l0.811,9.15-7.594.66-0.812-9.16a1.629,1.629,0,0,0-1.265-1.44c-9.039-2.11-16.407-12.59-17.511-24.88-1.3-14.71,6.654-27.46,17.737-28.44,9.137-.79,17.965,6.9,21.261,18.38a38.16,38.16,0,0,0-3.54,6.05c-3.83,8.19-4.577,16.91-2.5,24.06a17.12,17.12,0,0,1-5.6,3.97h0Zm47.727-9.81c-5.24,11.2-15.76,18.57-24.99,17.51a1.61,1.61,0,0,0-1.67.93l-3.91,8.34-6.916-3.19,3.9-8.34a1.653,1.653,0,0,0-.37-1.88c-6.788-6.31-7.924-19.02-2.682-30.22a33.556,33.556,0,0,1,3.552-5.99,1.479,1.479,0,0,0,.25-0.31c6.94-9.18,17.51-13.42,25.88-9.57,10.09,4.65,13.21,19.33,6.96,32.72h0Z" transform="translate(-958 -1710)"></path>
</svg>
