<?xml version="1.0" encoding="UTF-8"?>
<svg xmlns="http://www.w3.org/2000/svg" xmlns:xlink="http://www.w3.org/1999/xlink" width="38px" height="58px">
  <defs>
    <filter id="Filter_0">
      <feFlood flood-color="rgb(255, 255, 255)" flood-opacity="1" result="floodOut"></feFlood>
      <feComposite operator="atop" in="floodOut" in2="SourceGraphic" result="compOut"></feComposite>
      <feBlend mode="normal" in="compOut" in2="SourceGraphic"></feBlend>
    </filter>
  </defs>
  <g filter="url(#Filter_0)">
    <path fill-rule="evenodd" fill="rgb(115, 61, 67)" d="M37.999,18.890 C37.999,28.781 21.105,56.72 20.383,57.231 C20.90,57.706 19.562,57.999 18.999,57.999 C18.437,57.999 17.909,57.706 17.615,57.231 C16.895,56.72 0.0,28.782 0.0,18.890 C0.0,8.472 8.522,0.0 18.999,0.1 C29.477,0.0 37.999,8.472 37.999,18.890 ZM19.0,3.235 C10.318,3.235 3.254,10.257 3.254,18.890 C3.254,25.704 13.589,44.269 19.0,53.270 C24.410,44.271 34.744,25.696 34.744,18.890 C34.744,10.257 27.681,3.235 19.0,3.235 ZM10.418,18.773 C10.418,14.69 14.268,10.241 19.0,10.241 C23.731,10.241 27.581,14.69 27.581,18.773 C27.581,23.478 23.731,27.306 19.0,27.306 C14.268,27.306 10.418,23.478 10.418,18.773 ZM24.326,18.773 C24.326,15.854 21.936,13.477 19.0,13.477 C16.64,13.477 13.673,15.854 13.673,18.773 C13.673,21.692 16.63,24.69 19.0,24.69 C21.936,24.69 24.326,21.692 24.326,18.773 ZM19.0,0.1 C18.999,0.1 18.999,0.1 18.999,0.1 C18.999,0.1 18.999,0.1 18.999,0.1 L19.0,0.1 Z"></path>
  </g>
</svg>
