<?xml version="1.0" encoding="UTF-8"?>
<svg xmlns="http://www.w3.org/2000/svg" width="111" height="111" viewBox="0 0 111 111">
  <defs>
    <style>
      .cls-1 {
        fill: #fff;
        fill-rule: evenodd;
      }
    </style>
  </defs>
  <path id="ico" class="cls-1" d="M343.894,1710.11a1.382,1.382,0,0,0-1.815.75l-2.934,7.02a1.378,1.378,0,0,0,.746,1.81,1.269,1.269,0,0,0,.534.11,1.391,1.391,0,0,0,1.282-.85l2.934-7.02A1.394,1.394,0,0,0,343.894,1710.11Zm-0.263,14a1.387,1.387,0,0,0,1.253.79,1.293,1.293,0,0,0,.6-0.14l6.866-3.28a1.386,1.386,0,1,0-1.2-2.5l-6.866,3.28a1.387,1.387,0,0,0-.653,1.85h0Zm24.937,30.52c-1.295-5.28-5.1-18.22-7.449-23.09a1.4,1.4,0,0,0-1.579-.75l-24.436,5.99a1.379,1.379,0,0,0-1.057,1.39c0.167,5.39,2.781,18.63,4.077,23.92,4.195,17.1,13.306,29.36,21.419,29.36,0.161,0,.32-0.02.48-0.03l6.045,24.77-8.473,2.08a1.385,1.385,0,0,0,.329,2.73,1.25,1.25,0,0,0,.331-0.04l19.643-4.81a1.39,1.39,0,0,0-.66-2.7l-8.473,2.08-6.046-24.76c7.531-3.36,10.126-18.69,5.849-36.14h0Zm-9.487-20.87c0.809,1.88,1.748,4.53,2.677,7.37a36.136,36.136,0,0,0-15.074,8.09,37.607,37.607,0,0,1-7.415,5.08,149.118,149.118,0,0,1-2.386-15.1Zm1.663,54.77c-6.792,1.69-15.915-10.75-19.925-27.1-0.277-1.13-.615-2.63-0.976-4.33a39.092,39.092,0,0,0,8.6-5.73,33.273,33.273,0,0,1,14.157-7.59c1.378,4.42,2.634,8.91,3.273,11.51,4.01,16.36,1.661,31.58-5.129,33.24h0Zm-0.8-30.44a1.387,1.387,0,0,0-1.018,1.68c1.981,8.07,1.668,14.84.835,16.87a1.386,1.386,0,0,0,.758,1.81,1.366,1.366,0,0,0,1.81-.76c1.169-2.85,1.318-10.33-.706-18.59a1.384,1.384,0,0,0-1.679-1.01h0Zm-70.065,35.4a1.385,1.385,0,1,0-.66,2.69l19.642,4.81a1.26,1.26,0,0,0,.331.04,1.384,1.384,0,0,0,.329-2.73l-8.473-2.08,6.045-24.77c0.16,0.01.318,0.03,0.48,0.03,8.113,0,17.225-12.25,21.418-29.36,1.3-5.29,3.91-18.52,4.077-23.92a1.386,1.386,0,0,0-1.057-1.39l-24.435-5.99a1.4,1.4,0,0,0-1.58.75c-2.35,4.87-6.153,17.81-7.448,23.09-4.279,17.45-1.684,32.78,5.848,36.14l-6.044,24.76Zm18.155-79.7,22.2,5.44c-0.232,3.09-1.01,7.88-1.864,12.41a37.046,37.046,0,0,1-7.235-5.05,35.862,35.862,0,0,0-14.869-8.13c0.619-1.78,1.224-3.4,1.768-4.67h0Zm-6.791,21.53c0.772-3.14,2.438-9.03,4.138-14.22a32.944,32.944,0,0,1,13.979,7.62,38.944,38.944,0,0,0,8.463,5.74c-0.56,2.79-1.112,5.31-1.525,7-4.01,16.35-13.125,28.78-19.925,27.1-6.792-1.66-9.141-16.88-5.13-33.24h0Zm5.862,23.42a1.388,1.388,0,0,0,.758-1.81c-1.031-2.51-1.427-10.85,1-20.74a1.388,1.388,0,0,0-2.694-.67c-2.451,10-2.28,19.04-.873,22.46a1.379,1.379,0,0,0,1.284.86,1.22,1.22,0,0,0,.525-0.1h0Zm23.1,41.52a1.6,1.6,0,0,0,.486-0.08c0.416-.16,10.2-3.9,12.024-11.25a7.465,7.465,0,0,0-4.251-8.91,7.385,7.385,0,0,0-8.259,1.51,7.384,7.384,0,0,0-8.258-1.51,7.464,7.464,0,0,0-4.253,8.91c1.826,7.35,11.608,11.09,12.023,11.25a1.619,1.619,0,0,0,.488.08h0Zm-9.818-12a4.723,4.723,0,0,1,2.678-5.71,4.836,4.836,0,0,1,1.938-.4,4.773,4.773,0,0,1,4.044,2.33,1.387,1.387,0,0,0,2.311,0,4.762,4.762,0,0,1,8.66,3.78c-1.269,5.11-7.946,8.31-9.817,9.12-1.87-.81-8.539-3.99-9.813-9.12h0Zm68.326-65.79a8.326,8.326,0,0,0-4.688-9.82,8.013,8.013,0,0,0-9.042,1.8,8.012,8.012,0,0,0-9.042-1.8,8.328,8.328,0,0,0-4.687,9.82c2,8.16,12.779,12.33,13.238,12.5a1.391,1.391,0,0,0,.492.09,1.639,1.639,0,0,0,.491-0.08c0.458-.18,11.236-4.35,13.238-12.51h0Zm-13.73,9.71c-2.017-.88-9.594-4.51-11.033-10.37a5.507,5.507,0,0,1,5.262-7.07,5.422,5.422,0,0,1,4.612,2.69,1.382,1.382,0,0,0,2.319,0,5.327,5.327,0,0,1,6.773-2.24,5.526,5.526,0,0,1,3.1,6.62c-1.439,5.86-9.017,9.49-11.034,10.37h0Zm-87.471-2.37a1.323,1.323,0,0,0,1.009,0c0.322-.12,7.9-3.14,9.322-9.09a6.286,6.286,0,0,0-3.561-7.43,5.837,5.837,0,0,0-6.265,1.09,5.835,5.835,0,0,0-6.264-1.09,6.288,6.288,0,0,0-3.563,7.43c1.422,5.95,9,8.97,9.322,9.09h0Zm-4.678-13.97a3.314,3.314,0,0,1,1.232-.25,3.264,3.264,0,0,1,2.78,1.7,1.389,1.389,0,0,0,2.339,0,3.148,3.148,0,0,1,4.012-1.45,3.515,3.515,0,0,1,1.945,4.23c-0.9,3.79-5.57,6.22-7.128,6.94-1.557-.72-6.223-3.15-7.127-6.94a3.518,3.518,0,0,1,1.947-4.23h0Zm45.817,95.59A6.291,6.291,0,0,0,325.1,1804a5.822,5.822,0,0,0-6.266,1.1,5.82,5.82,0,0,0-6.265-1.1,6.292,6.292,0,0,0-3.561,7.43c1.422,5.95,9,8.97,9.322,9.1a1.456,1.456,0,0,0,1.008,0c0.323-.13,7.9-3.15,9.323-9.1h0Zm-9.835,6.3c-2.092-.95-6.29-3.48-7.118-6.94a3.505,3.505,0,0,1,1.945-4.23,3.132,3.132,0,0,1,1.232-.26,3.263,3.263,0,0,1,2.78,1.7,1.389,1.389,0,0,0,2.339,0,3.141,3.141,0,0,1,4.012-1.44,3.5,3.5,0,0,1,1.945,4.23c-0.9,3.79-5.586,6.22-7.134,6.94h0Z" transform="translate(-278 -1710)"></path>
</svg>
