<?xml version="1.0" standalone="no"?>
<!DOCTYPE svg PUBLIC "-//W3C//DTD SVG 20010904//EN"
 "http://www.w3.org/TR/2001/REC-SVG-20010904/DTD/svg10.dtd">
<svg version="1.0" xmlns="http://www.w3.org/2000/svg"
 width="65.000000pt" height="70.000000pt" viewBox="0 0 65.000000 70.000000"
 preserveAspectRatio="xMidYMid meet">

<g transform="translate(0.000000,70.000000) scale(0.100000,-0.100000)"
fill="#000000" stroke="none">
<path d="M216 509 c-35 -29 -37 -35 -31 -68 10 -55 54 -127 115 -191 69 -72
99 -80 151 -44 22 15 39 32 39 38 0 7 -13 27 -29 46 -26 32 -30 34 -55 22 -15
-7 -30 -12 -34 -12 -9 0 -82 96 -82 107 0 4 10 17 21 29 20 22 21 25 6 47 -19
30 -46 57 -55 57 -4 0 -25 -14 -46 -31z m75 -11 c24 -29 24 -37 -3 -65 l-21
-23 28 -40 c15 -22 38 -51 51 -65 23 -24 25 -25 53 -10 29 14 30 14 50 -14 12
-16 21 -33 21 -38 0 -11 -54 -43 -73 -43 -51 0 -184 161 -194 237 -5 35 -2 43
22 61 35 27 42 27 66 0z"/>
</g>
</svg>
