<?xml version="1.0" standalone="no"?>
<!DOCTYPE svg PUBLIC "-//W3C//DTD SVG 20010904//EN"
 "http://www.w3.org/TR/2001/REC-SVG-20010904/DTD/svg10.dtd">
<svg version="1.0" xmlns="http://www.w3.org/2000/svg"
 width="65.000000pt" height="70.000000pt" viewBox="0 0 65.000000 70.000000"
 preserveAspectRatio="xMidYMid meet">

<g transform="translate(0.000000,70.000000) scale(0.100000,-0.100000)"
fill="#000000" stroke="none">
<path d="M278 407 c-87 -56 -158 -104 -158 -107 0 -3 24 -16 53 -30 47 -23 52
-28 57 -64 l5 -40 29 26 30 25 53 -23 c40 -18 55 -21 58 -12 2 7 11 69 20 138
8 69 17 140 20 158 3 17 2 32 -2 31 -4 0 -79 -46 -165 -102z m133 -64 c-10
-73 -20 -135 -23 -139 -5 -5 -120 39 -137 53 -3 2 24 33 59 68 35 35 61 68 57
72 -4 4 -38 -23 -75 -60 -67 -66 -68 -67 -100 -55 -17 7 -32 15 -32 19 0 7
262 181 266 176 1 -1 -6 -62 -15 -134z m-149 -118 c0 -5 -5 -11 -11 -13 -6 -2
-11 4 -11 13 0 9 5 15 11 13 6 -2 11 -8 11 -13z"/>
</g>
</svg>
